<?xml version="1.0" encoding="UTF-8" standalone="no"?>
<!-- Created with Inkscape (http://www.inkscape.org/) -->

<svg
   width="171mm"
   height="170mm"
   viewBox="0 0 171 170"
   version="1.1"
   id="svg1"
   inkscape:version="1.4.3 (0d15f75, 2025-12-25)"
   sodipodi:docname="butter_flower_art.svg"
   xmlns:inkscape="http://www.inkscape.org/namespaces/inkscape"
   xmlns:sodipodi="http://sodipodi.sourceforge.net/DTD/sodipodi-0.dtd"
   xmlns="http://www.w3.org/2000/svg"
   xmlns:svg="http://www.w3.org/2000/svg">
  <sodipodi:namedview
     id="namedview1"
     pagecolor="#0507ff"
     bordercolor="#000000"
     borderopacity="0.25"
     inkscape:showpageshadow="2"
     inkscape:pageopacity="0.0"
     inkscape:pagecheckerboard="0"
     inkscape:deskcolor="#d1d1d1"
     inkscape:document-units="mm"
     inkscape:zoom="0.45233641"
     inkscape:cx="471.99384"
     inkscape:cy="467.57235"
     inkscape:window-width="1431"
     inkscape:window-height="768"
     inkscape:window-x="9"
     inkscape:window-y="34"
     inkscape:window-maximized="0"
     inkscape:current-layer="layer1" />
  <defs
     id="defs1">
    <inkscape:path-effect
       effect="fillet_chamfer"
       id="path-effect7"
       is_visible="true"
       lpeversion="1"
       nodesatellites_param="F,0,0,1,0,19.907808,0,1 @ F,0,0,1,0,13.932287,0,1 @ F,0,0,1,0,19.058449,0,1 @ F,0,0,1,0,19.913257,0,1 @ F,0,0,1,0,35.446058,0,1 @ F,0,0,1,0,20.643062,0,1 @ F,0,0,1,0,14.722285,0,1"
       radius="0"
       unit="px"
       method="auto"
       mode="F"
       chamfer_steps="1"
       flexible="false"
       use_knot_distance="true"
       apply_no_radius="true"
       apply_with_radius="true"
       only_selected="false"
       hide_knots="false" />
    <inkscape:perspective
       sodipodi:type="inkscape:persp3d"
       inkscape:vp_x="0 : 21.499915 : 1"
       inkscape:vp_y="0 : 999.9999 : 0"
       inkscape:vp_z="210.00004 : 21.499915 : 1"
       inkscape:persp3d-origin="105.00001 : -27.999997 : 1"
       id="perspective1" />
  </defs>
  <g
     inkscape:label="Layer 1"
     inkscape:groupmode="layer"
     id="layer1">
    <path
       id="path2"
       style="fill:none;fill-opacity:1;stroke-width:1;stroke:#fdfee1;stroke-opacity:1"
       inkscape:transform-center-x="0.47519278"
       inkscape:transform-center-y="0.37847511"
       d="m 71.887034,5.295801 c -0.01555,6.16e-4 -0.03046,0.0024 -0.04548,0.00465 -0.890214,0.133361 -1.833782,3.30307 -2.786393,7.379911 C 66.58718,9.417172 64.49678,6.983319 63.642576,7.217647 61.791418,7.725463 61.341204,21.972062 60.257769,29.404924 54.089452,25.350308 42.814968,15.729745 41.163845,16.782438 c -0.78243,0.498847 -0.303656,3.968129 0.530716,8.257894 -3.573577,-1.971909 -6.464505,-3.339722 -7.1484,-2.779158 -1.457834,1.194931 3.706709,13.943302 5.818766,21.249348 -7.290508,-1.199831 -21.476564,-5.393207 -22.555729,-3.761527 -0.531302,0.803319 1.480073,3.977499 4.13153,7.738029 -4.159599,-0.362274 -7.453762,-0.451006 -7.856884,0.351916 -0.829412,1.651989 8.678625,10.863756 13.668933,16.70389 -7.21728,1.853383 -21.61894,3.775088 -21.938196,5.686992 -0.164641,0.98597 3.212126,3.190868 7.374744,5.657536 -4.121024,1.40821 -7.35246,2.716494 -7.395415,3.641121 -0.084279,1.814189 11.91542,6.23634 18.912024,9.525517 -5.944194,4.646 -17.929556,12.052144 -17.451131,13.899414 0.258567,0.99836 4.488359,1.64955 9.497612,2.2226 -3.371336,3.10929 -5.991681,5.77855 -5.642033,6.67349 0.652432,1.66994 13.096421,0.87181 20.85144,1.00408 -3.632897,6.71598 -11.246743,17.94471 -10.081038,19.40915 0.655753,0.8238 4.945635,-0.36695 9.883634,-1.92857 -1.923172,4.4268 -3.361212,8.17876 -2.651518,8.88008 1.267657,1.25269 12.187966,-4.46144 19.32957,-7.5091 -0.641944,7.67678 -2.908002,20.53669 -1.279509,21.38371 0.941215,0.48954 4.420893,-2.38994 8.332825,-5.86011 0.03435,5.03382 0.229915,9.29904 1.193726,9.66246 1.670949,0.63006 9.350154,-9.07245 14.635799,-14.75672 2.514262,7.32379 5.602761,19.58737 7.405233,19.69699 1.051933,0.064 3.039863,-3.92794 5.18573,-8.64806 2.130706,4.71614 4.105236,8.7011 5.155757,8.63979 1.800215,-0.10507 4.911707,-12.32726 7.441923,-19.64842 5.272096,5.69557 12.936876,15.43015 14.610476,14.80375 0.96737,-0.36207 1.17162,-4.64931 1.2175,-9.70121 3.90332,3.47956 7.37598,6.36749 8.31835,5.88026 1.62747,-0.84145 -0.59559,-13.66007 -1.22369,-21.3434 7.13421,3.06545 18.03685,8.80448 19.30735,7.55509 0.71401,-0.70215 -0.72755,-4.48318 -2.65049,-8.93589 4.94307,1.57697 9.24147,2.78295 9.90017,1.95957 1.16686,-1.45857 -6.38592,-12.66205 -10.01127,-19.39158 7.75686,-0.11141 20.17542,0.71382 20.83128,-0.95291 0.35325,-0.89768 -2.28306,-3.5916 -5.66632,-6.72517 5.02837,-0.56191 9.28138,-1.20306 9.54309,-2.20349 0.48202,-1.84261 -11.43913,-9.253824 -17.38344,-13.915943 7.00936,-3.270431 18.98142,-7.652021 18.90169,-9.463505 -0.0408,-0.928102 -3.2925,-2.250531 -7.43158,-3.674711 4.18932,-2.467235 7.59647,-4.676393 7.43365,-5.66632 -0.31416,-1.910068 -14.67235,-3.863801 -21.89479,-5.732467 5.01242,-5.829633 14.50406,-14.985444 13.68031,-16.636194 -0.40219,-0.805946 -3.71246,-0.72285 -7.8879,-0.368453 2.6763,-3.773619 4.71362,-6.964839 4.18218,-7.772652 -1.07455,-1.633348 -15.25489,2.519844 -22.55211,3.704683 2.13787,-7.307952 7.31002,-19.994885 5.85804,-21.190954 -0.68312,-0.562716 -3.58178,0.800323 -7.16442,2.766239 0.85055,-4.309444 1.34373,-7.801295 0.55965,-8.303886 -1.64904,-1.057035 -12.95313,8.54216 -19.1301,12.579594 C 106.80035,21.999186 106.38345,7.799892 104.53672,7.288444 103.68395,7.052271 101.5906,9.47571 99.11793,12.727905 98.172747,8.633228 97.235136,5.445127 96.342905,5.309237 94.419163,5.016244 88.067786,18.207003 84.062001,24.459489 80.101932,18.237735 73.861881,5.217578 71.887034,5.295801 Z" />
  </g>
</svg>
