<?xml version="1.0" encoding="UTF-8" standalone="no"?>
<!-- Created with Inkscape (http://www.inkscape.org/) -->

<svg
   width="6mm"
   height="6mm"
   viewBox="0 0 6 6"
   version="1.1"
   id="svg1"
   inkscape:version="1.4.3 (0d15f75, 2025-12-25)"
   sodipodi:docname="butter_blob_m.svg"
   xmlns:inkscape="http://www.inkscape.org/namespaces/inkscape"
   xmlns:sodipodi="http://sodipodi.sourceforge.net/DTD/sodipodi-0.dtd"
   xmlns:xlink="http://www.w3.org/1999/xlink"
   xmlns="http://www.w3.org/2000/svg"
   xmlns:svg="http://www.w3.org/2000/svg">
  <sodipodi:namedview
     id="namedview1"
     pagecolor="#0000ff"
     bordercolor="#000000"
     borderopacity="0.25"
     inkscape:showpageshadow="2"
     inkscape:pageopacity="0.0"
     inkscape:pagecheckerboard="0"
     inkscape:deskcolor="#d1d1d1"
     inkscape:document-units="mm"
     inkscape:zoom="13.199827"
     inkscape:cx="9.5077003"
     inkscape:cy="10.341045"
     inkscape:window-width="1431"
     inkscape:window-height="768"
     inkscape:window-x="9"
     inkscape:window-y="34"
     inkscape:window-maximized="0"
     inkscape:current-layer="layer1" />
  <defs
     id="defs1">
    <linearGradient
       id="swatch4"
       inkscape:swatch="solid">
      <stop
         style="stop-color:#1efee1;stop-opacity:0.99698797;"
         offset="0"
         id="stop4" />
    </linearGradient>
    <pattern
       inkscape:collect="always"
       xlink:href="#Bricks"
       id="pattern3"
       patternTransform="scale(0.01,0.25)"
       x="0"
       y="0"
       preserveAspectRatio="none" />
    <pattern
       patternUnits="userSpaceOnUse"
       width="100"
       height="100"
       id="Bricks"
       style="fill:#000000"
       patternTransform="scale(0.25,0.25)"
       inkscape:collect="always"
       inkscape:label="Bricks"
       inkscape:isstock="true">
      <g
         id="g13367">
        <rect
           style="fill:none;stroke:none;stroke-width:0"
           id="rect13349"
           width="100"
           height="100"
           x="0"
           y="0" />
        <rect
           style="fill-opacity:1;stroke-width:0"
           id="rect13351"
           width="40"
           height="40"
           x="0"
           y="60" />
        <rect
           style="fill-opacity:1;stroke-width:0"
           id="rect13353"
           width="90"
           height="40"
           x="0"
           y="10" />
        <rect
           style="fill-opacity:1;stroke-width:0"
           id="rect13355"
           width="50"
           height="40"
           x="50"
           y="60" />
      </g>
    </pattern>
    <inkscape:path-effect
       effect="fillet_chamfer"
       id="path-effect7"
       is_visible="true"
       lpeversion="1"
       nodesatellites_param="F,0,0,1,0,19.907808,0,1 @ F,0,0,1,0,21.421326,0,1 @ F,0,0,1,0,16.574734,0,1 @ F,0,0,1,0,60.207086,0,1 @ F,0,0,1,0,21.760331,0,1 @ F,0,0,1,0,43.565931,0,1 @ F,0,0,1,0,49.578918,0,1"
       radius="0"
       unit="px"
       method="auto"
       mode="F"
       chamfer_steps="1"
       flexible="false"
       use_knot_distance="true"
       apply_no_radius="true"
       apply_with_radius="true"
       only_selected="false"
       hide_knots="false" />
    <inkscape:perspective
       sodipodi:type="inkscape:persp3d"
       inkscape:vp_x="0 : -142.50014 : 1"
       inkscape:vp_y="0 : 999.99988 : 0"
       inkscape:vp_z="210.00011 : -142.50014 : 1"
       inkscape:persp3d-origin="105.00002 : -192.00004 : 1"
       id="perspective1" />
  </defs>
  <g
     inkscape:label="Layer 1"
     inkscape:groupmode="layer"
     id="layer1">
    <path
       id="path6"
       style="fill:#fdfee1;fill-opacity:1;stroke:#fdfee1;stroke-width:0.0471006;stroke-dasharray:none;stroke-opacity:1"
       d="M 3.7697957 0.33072917 C 2.5270759 0.35753586 1.3641899 0.94848888 0.61029867 1.9363159 C 0.40027979 2.2216274 0.33162123 2.5869823 0.42374674 2.9290202 L 0.7286377 4.0591838 C 0.84787063 4.501387 1.1620889 4.8652487 1.5823324 5.0477539 L 2.552299 5.4689168 C 2.9428371 5.6386255 3.3894432 5.6213161 3.7656616 5.4218913 L 3.8586792 5.3727987 C 4.650912 5.0724693 5.2631849 4.4278619 5.5221436 3.6214844 C 5.693884 2.7060437 5.4392014 1.7622534 4.8301961 1.0572998 L 4.6699992 0.87126465 C 4.4678481 0.56356314 4.1365179 0.36461286 3.7697957 0.33072917 z M 2.7124959 2.1724772 C 2.8117147 2.1724772 2.8969808 2.199349 2.9682943 2.2530924 C 3.0396077 2.3058024 3.0907674 2.3698808 3.1217733 2.4453288 C 3.1589803 2.4091548 3.1915367 2.3776329 3.2194417 2.3507609 C 3.2483801 2.3228549 3.2861041 2.2934002 3.3326131 2.2623942 C 3.3718872 2.2355232 3.4178792 2.2138179 3.4705892 2.1972819 C 3.5243327 2.1807469 3.5837609 2.1724772 3.6488729 2.1724772 C 3.778064 2.1724772 3.8803829 2.2148522 3.9558309 2.2996012 C 4.0312783 2.3843506 4.0690023 2.5145752 4.0690023 2.6902751 L 4.0690023 3.4669718 C 4.0690023 3.5031458 4.0752038 3.5331178 4.0876058 3.5568888 C 4.1000078 3.5796268 4.1211958 3.5971968 4.1511678 3.6095988 C 4.1749388 3.6189008 4.198193 3.6261329 4.220931 3.6313029 C 4.244702 3.6354329 4.2710569 3.6385347 4.2999959 3.6406047 L 4.2999959 3.742924 L 3.554305 3.742924 L 3.554305 3.6406047 L 3.6256185 3.6344035 C 3.6504225 3.6323365 3.6721278 3.6282011 3.6907308 3.6220011 C 3.7196698 3.6126991 3.7408568 3.5966801 3.7542928 3.5739421 C 3.7687668 3.5501711 3.7759969 3.5196818 3.7759969 3.4824748 L 3.7759969 2.6933757 C 3.7759969 2.5858887 3.7511918 2.5032068 3.7015828 2.4453288 C 3.653007 2.3864178 3.5920283 2.3569621 3.5186483 2.3569621 C 3.4680053 2.3569621 3.4204633 2.3647135 3.3760213 2.3802165 C 3.3315792 2.3957195 3.2907552 2.4174238 3.2535482 2.4453288 C 3.2235762 2.4680668 3.1982548 2.4928708 3.1775838 2.5197428 C 3.1579478 2.5455808 3.1429603 2.5672851 3.1326253 2.5848551 L 3.1326253 3.4669718 C 3.1326253 3.5031458 3.1388268 3.5331178 3.1512288 3.5568888 C 3.1636308 3.5796268 3.1848189 3.5971968 3.2147909 3.6095988 C 3.2385619 3.6189008 3.2597489 3.6261329 3.2783529 3.6313029 C 3.2979899 3.6354329 3.3233112 3.6385347 3.3543172 3.6406047 L 3.3543172 3.742924 L 2.6241292 3.742924 L 2.6241292 3.6406047 C 2.6479002 3.6385347 2.6706381 3.6364735 2.6923421 3.6344035 C 2.7150801 3.6323365 2.7357498 3.6282011 2.7543538 3.6220011 C 2.7832928 3.6126991 2.8044799 3.5966801 2.8179159 3.5739421 C 2.8323899 3.5501711 2.83962 3.5196818 2.83962 3.4824748 L 2.83962 2.6933757 C 2.83962 2.5858887 2.8148149 2.5032068 2.7652059 2.4453288 C 2.71663 2.3864178 2.6556523 2.3569621 2.5822713 2.3569621 C 2.5316284 2.3569621 2.4840864 2.3652308 2.4396444 2.3817668 C 2.3952022 2.3972698 2.3543782 2.4189741 2.3171712 2.4468791 C 2.2871992 2.4696171 2.2618779 2.4954547 2.2412069 2.5243937 C 2.2205359 2.5522987 2.2050331 2.5734867 2.1946981 2.5879557 L 2.1946981 3.4638713 C 2.1946981 3.4990113 2.2019332 3.528467 2.2164022 3.552238 C 2.2308712 3.576009 2.2525755 3.5940962 2.2815145 3.6064982 C 2.3032195 3.6168332 2.3254391 3.6245826 2.3481771 3.6297526 C 2.3709141 3.6349246 2.3962364 3.6385347 2.4241414 3.6406047 L 2.4241414 3.742924 L 1.6815511 3.742924 L 1.6815511 3.6406047 C 1.7053221 3.6385347 1.7296099 3.6364735 1.7544149 3.6344035 C 1.7802539 3.6323365 1.8024745 3.6282011 1.8210775 3.6220011 C 1.8500165 3.6126991 1.8712035 3.5966801 1.8846395 3.5739421 C 1.8991135 3.5501711 1.9063436 3.5196818 1.9063436 3.4824748 L 1.9063436 2.5321452 C 1.9063436 2.4990722 1.8985922 2.4696165 1.8830892 2.4437785 C 1.8686192 2.4169065 1.8479495 2.3941696 1.8210775 2.3755656 C 1.8014405 2.3631626 1.7771527 2.35334 1.7482137 2.34611 C 1.7192747 2.337837 1.6893027 2.3326771 1.6582967 2.3306071 L 1.6582967 2.2298381 L 2.1698934 2.1957316 L 2.1915975 2.2174357 L 2.1915975 2.436027 L 2.2024495 2.436027 C 2.2282875 2.410189 2.2598104 2.3796997 2.2970174 2.3445597 C 2.334224 2.3094197 2.368848 2.2809976 2.400887 2.2592936 C 2.4370605 2.2344886 2.4820195 2.2138179 2.5357625 2.1972819 C 2.5905395 2.1807469 2.6494509 2.1724772 2.7124959 2.1724772 z " />
  </g>
</svg>
