<?xml version="1.0" encoding="UTF-8" standalone="no"?>
<!-- Created with Inkscape (http://www.inkscape.org/) -->

<svg
   width="16"
   height="16"
   viewBox="0 0 16 16"
   version="1.1"
   id="svg1"
   xmlns="http://www.w3.org/2000/svg"
   xmlns:svg="http://www.w3.org/2000/svg">
  <defs
     id="defs1" />
  <g
     id="layer1">
    <path
       id="ellipse1"
       style="fill:#bbbb91;stroke-width:1.52483"
       d="M 9.5075594,6.505559 A 7.8845173,2.1227546 45.250337 0 1 13.550784,13.599502 7.8845173,2.1227546 45.250337 0 1 6.4924431,9.4944423 7.8845173,2.1227546 45.250337 0 1 2.4492175,2.4004987 7.8845173,2.1227546 45.250337 0 1 9.5075594,6.505559 Z" />
    <path
       id="ellipse3"
       style="fill:#adad7b;fill-opacity:1;stroke-width:1.52483"
       d="M 8.1156416,5.8803976 A 7.884517,2.1227545 3.1228601 0 1 15.872808,8.4295264 7.884517,2.1227545 3.1228601 0 1 7.8843581,10.119602 7.884517,2.1227545 3.1228601 0 1 0.12719128,7.5704735 7.884517,2.1227545 3.1228601 0 1 8.1156416,5.8803976 Z" />
    <path
       id="ellipse2"
       style="fill:#a5a56e;fill-opacity:1;stroke-width:1.52483"
       d="M 6.5829854,6.4194442 A 2.1227546,7.8845173 48.122861 0 1 13.870637,2.7368046 2.1227546,7.8845173 48.122861 0 1 9.417014,9.5805572 2.1227546,7.8845173 48.122861 0 1 2.1293613,13.263195 2.1227546,7.8845173 48.122861 0 1 6.5829854,6.4194442 Z" />
    <path
       id="path1"
       style="display:inline;fill:#9d9d62;fill-opacity:1;stroke-width:1.52483"
       d="M 10.122755,8.0000004 A 2.1227546,7.8845172 0 0 1 8.0000002,15.884517 2.1227546,7.8845172 0 0 1 5.8772456,8.0000004 2.1227546,7.8845172 0 0 1 8.0000002,0.11548318 2.1227546,7.8845172 0 0 1 10.122755,8.0000004 Z" />
  </g>
</svg>
