<?xml version="1.0" encoding="UTF-8" standalone="no"?>
<!-- Created with Inkscape (http://www.inkscape.org/) -->

<svg
   width="150mm"
   height="150mm"
   viewBox="0 0 150 150"
   version="1.1"
   id="svg1"
   inkscape:version="1.4.3 (0d15f75, 2025-12-25)"
   sodipodi:docname="fig_flower_art.svg"
   xmlns:inkscape="http://www.inkscape.org/namespaces/inkscape"
   xmlns:sodipodi="http://sodipodi.sourceforge.net/DTD/sodipodi-0.dtd"
   xmlns="http://www.w3.org/2000/svg"
   xmlns:svg="http://www.w3.org/2000/svg">
  <sodipodi:namedview
     id="namedview1"
     pagecolor="#ffffff"
     bordercolor="#000000"
     borderopacity="0.25"
     inkscape:showpageshadow="2"
     inkscape:pageopacity="0.0"
     inkscape:pagecheckerboard="0"
     inkscape:deskcolor="#d1d1d1"
     inkscape:document-units="mm"
     inkscape:zoom="0.45233641"
     inkscape:cx="374.72111"
     inkscape:cy="480.83682"
     inkscape:window-width="1431"
     inkscape:window-height="768"
     inkscape:window-x="9"
     inkscape:window-y="34"
     inkscape:window-maximized="0"
     inkscape:current-layer="layer1" />
  <defs
     id="defs1">
    <inkscape:path-effect
       effect="fillet_chamfer"
       id="path-effect7"
       is_visible="true"
       lpeversion="1"
       nodesatellites_param="F,0,0,1,0,19.907808,0,1 @ F,0,0,1,0,13.932287,0,1 @ F,0,0,1,0,19.058449,0,1 @ F,0,0,1,0,19.913257,0,1 @ F,0,0,1,0,35.446058,0,1 @ F,0,0,1,0,20.643062,0,1 @ F,0,0,1,0,14.722285,0,1"
       radius="0"
       unit="px"
       method="auto"
       mode="F"
       chamfer_steps="1"
       flexible="false"
       use_knot_distance="true"
       apply_no_radius="true"
       apply_with_radius="true"
       only_selected="false"
       hide_knots="false" />
    <inkscape:perspective
       sodipodi:type="inkscape:persp3d"
       inkscape:vp_x="0 : 21.499915 : 1"
       inkscape:vp_y="0 : 999.9999 : 0"
       inkscape:vp_z="210.00004 : 1.499916 : 1"
       inkscape:persp3d-origin="105.00001 : -27.999997 : 1"
       id="perspective1" />
  </defs>
  <g
     inkscape:label="Layer 1"
     inkscape:groupmode="layer"
     id="layer1">
    <path
       sodipodi:type="star"
       style="fill:#ca9f91;fill-opacity:1;stroke-width:1"
       id="path2"
       inkscape:flatsided="false"
       sodipodi:sides="15"
       sodipodi:cx="37.992264"
       sodipodi:cy="19.538879"
       sodipodi:r1="78.772881"
       sodipodi:r2="55.613655"
       sodipodi:arg1="0.67474094"
       sodipodi:arg2="0.88418045"
       inkscape:rounded="0.094148785"
       inkscape:randomized="0"
       d="m 99.503549,68.747908 c -1.586693,1.983366 -24.292094,-7.807799 -26.25648,-6.197666 -1.964385,1.610133 3.179659,25.795686 0.923435,26.962215 C 71.91428,90.678987 55.154289,72.499193 52.704834,73.171136 50.255379,73.843078 45.117546,98.029951 42.581913,98.17794 40.04628,98.325928 32.129654,74.900958 29.618662,74.518525 27.10767,74.136092 12.576338,94.142155 10.199729,93.246014 7.8231208,92.349873 10.118717,67.730117 7.9803613,66.359434 5.8420054,64.988751 -15.570226,77.354775 -17.376872,75.569456 -19.183519,73.784136 -7.0726303,52.226573 -8.4686087,50.104644 -9.864587,47.982715 -34.455348,50.570501 -35.379648,48.204701 c -0.924299,-2.365799 18.9078,-17.133672 18.495576,-19.639946 -0.412223,-2.506273 -23.929549,-10.144177 -23.811681,-12.681389 0.117869,-2.537212 24.242027,-7.9618935 24.884835,-10.419155 0.642809,-2.4572615 -17.734722,-19.000192 -16.595067,-21.270109 1.139655,-2.269917 25.384587,2.586569 26.9712801,0.603203 1.586693,-1.983367 -8.4734001,-24.570901 -6.5090151,-26.181034 1.9643847,-1.610133 22.137921,12.68779 24.394145,11.521261 2.256224,-1.166529 2.253049,-25.893077 4.702504,-26.565019 2.449456,-0.671943 15.063409,20.595177 17.599042,20.447188 2.535634,-0.147988 12.589926,-22.738105 15.100919,-22.355672 2.510992,0.382434 5.384295,24.941471 7.760904,25.837612 2.376608,0.896141 20.74989,-15.651509 22.888246,-14.280826 2.138355,1.370683 -5.225812,24.975157 -3.419165,26.760477 1.806647,1.785319 25.322005,-5.858624 26.717985,-3.736696 1.39598,2.121929 -14.932325,20.690413 -14.008025,23.05621267 C 90.717134,1.6666083 115.30856,4.2480789 115.72078,6.7543527 116.13301,9.2606266 93.663873,19.58246 93.546005,22.119672 c -0.117868,2.537212 21.297535,14.897736 20.654725,17.354998 -0.6428,2.457261 -25.367646,2.747706 -26.507301,5.017623 -1.139655,2.269917 13.396811,22.272248 11.81012,24.255615 z"
       inkscape:transform-center-x="0.44960616"
       inkscape:transform-center-y="0.35809566"
       transform="matrix(0.94615496,0,0,0.94615496,39.504906,56.153603)" />
    <path
       sodipodi:type="star"
       style="fill:#ca9f91;fill-opacity:1;stroke-width:1"
       id="path2-4"
       inkscape:flatsided="false"
       sodipodi:sides="15"
       sodipodi:cx="37.992264"
       sodipodi:cy="19.538879"
       sodipodi:r1="78.772881"
       sodipodi:r2="55.613655"
       sodipodi:arg1="0.67474094"
       sodipodi:arg2="0.88418045"
       inkscape:rounded="0.094148785"
       inkscape:randomized="0"
       d="m 99.503549,68.747908 c -1.586693,1.983366 -24.292094,-7.807799 -26.25648,-6.197666 -1.964385,1.610133 3.179659,25.795686 0.923435,26.962215 C 71.91428,90.678987 55.154289,72.499193 52.704834,73.171136 50.255379,73.843078 45.117546,98.029951 42.581913,98.17794 40.04628,98.325928 32.129654,74.900958 29.618662,74.518525 27.10767,74.136092 12.576338,94.142155 10.199729,93.246014 7.8231208,92.349873 10.118717,67.730117 7.9803613,66.359434 5.8420054,64.988751 -15.570226,77.354775 -17.376872,75.569456 -19.183519,73.784136 -7.0726303,52.226573 -8.4686087,50.104644 -9.864587,47.982715 -34.455348,50.570501 -35.379648,48.204701 c -0.924299,-2.365799 18.9078,-17.133672 18.495576,-19.639946 -0.412223,-2.506273 -23.929549,-10.144177 -23.811681,-12.681389 0.117869,-2.537212 24.242027,-7.9618935 24.884835,-10.419155 0.642809,-2.4572615 -17.734722,-19.000192 -16.595067,-21.270109 1.139655,-2.269917 25.384587,2.586569 26.9712801,0.603203 1.586693,-1.983367 -8.4734001,-24.570901 -6.5090151,-26.181034 1.9643847,-1.610133 22.137921,12.68779 24.394145,11.521261 2.256224,-1.166529 2.253049,-25.893077 4.702504,-26.565019 2.449456,-0.671943 15.063409,20.595177 17.599042,20.447188 2.535634,-0.147988 12.589926,-22.738105 15.100919,-22.355672 2.510992,0.382434 5.384295,24.941471 7.760904,25.837612 2.376608,0.896141 20.74989,-15.651509 22.888246,-14.280826 2.138355,1.370683 -5.225812,24.975157 -3.419165,26.760477 1.806647,1.785319 25.322005,-5.858624 26.717985,-3.736696 1.39598,2.121929 -14.932325,20.690413 -14.008025,23.05621267 C 90.717134,1.6666083 115.30856,4.2480789 115.72078,6.7543527 116.13301,9.2606266 93.663873,19.58246 93.546005,22.119672 c -0.117868,2.537212 21.297535,14.897736 20.654725,17.354998 -0.6428,2.457261 -25.367646,2.747706 -26.507301,5.017623 -1.139655,2.269917 13.396811,22.272248 11.81012,24.255615 z"
       inkscape:transform-center-x="-0.46840025"
       inkscape:transform-center-y="0.3392883"
       transform="matrix(0.93945974,0.11235931,-0.11235931,0.93945974,41.032827,52.034521)" />
  </g>
</svg>
